<svg width="160" height="160" viewBox="0 0 160 160" fill="none" xmlns="http://www.w3.org/2000/svg">
<g clip-path="url(#clip0)">
<path d="M131.966 83.2508C148.683 61.3341 145.716 41.7675 130.583 28.8008C107.433 8.96747 84.283 35.4175 77.683 48.6341H76.6996C70.083 35.4175 46.933 8.96747 23.783 28.8008C0.632975 48.6341 16.033 74.7341 23.783 85.0175C36.0996 101.351 76.683 137.917 76.683 137.917H77.6663C77.6663 137.917 104.65 112.817 121.683 95.3508C124.6 92.3841 129.566 86.4008 131.966 83.2508Z" fill="#FF9BBE"/>
<path d="M77.8829 139.6H76.8996C76.4829 139.6 76.083 139.45 75.783 139.167C74.1163 137.667 34.933 102.3 22.6496 86.017C14.633 75.3837 -1.41705 48.3837 22.8996 27.5337C30.2996 21.1837 38.3163 18.8337 46.733 20.5337C60.4663 23.3004 72.1163 36.6504 77.3996 46.0337C82.6663 36.6504 94.333 23.3004 108.05 20.5337C116.45 18.8337 124.466 21.2004 131.883 27.5337C146.316 39.9004 148.583 57.2504 138.3 76.417C137.866 77.2337 136.85 77.5337 136.05 77.1004C135.233 76.667 134.933 75.6504 135.366 74.8504C142.066 62.3837 146.533 44.4837 129.716 30.0837C123.133 24.4337 116.05 22.3337 108.716 23.817C95.2163 26.5504 83.783 40.617 79.383 49.4004C79.0996 49.967 78.5163 50.317 77.8996 50.317H76.9163C76.283 50.317 75.7163 49.967 75.433 49.4004C71.0329 40.6004 59.5996 26.5337 46.0996 23.817C38.733 22.317 31.6663 24.4337 25.0663 30.067C2.89962 49.067 17.8496 74.117 25.3163 84.017C36.5663 98.9337 72.233 131.45 77.3829 136.134C81.5496 132.35 105.683 110.35 120.666 94.2337C121.3 93.567 122.35 93.517 123.016 94.1504C123.683 94.7837 123.733 95.8337 123.1 96.5004C106.65 114.217 79.283 138.917 78.9996 139.167C78.6996 139.45 78.2996 139.6 77.8829 139.6Z" fill="#2C3583"/>
<path d="M85.4841 107.05C84.7841 107.05 84.1508 106.617 83.9174 105.95L68.2341 62.8671L57.5008 82.0171C57.2008 82.5504 56.6508 82.8671 56.0508 82.8671H34.7174C33.8008 82.8671 33.0508 82.1171 33.0508 81.2004C33.0508 80.2838 33.8008 79.5338 34.7174 79.5338H55.0841L67.1174 58.0671C67.4341 57.5004 68.0508 57.1504 68.7008 57.2171C69.3508 57.2671 69.9008 57.7004 70.1341 58.3004L85.3008 100L92.7175 74.2338C92.9008 73.5838 93.4508 73.1171 94.1174 73.0338C94.7841 72.9504 95.4341 73.2838 95.7674 73.8504L101.167 83.2504H147.267C148.184 83.2504 148.934 84.0004 148.934 84.9171C148.934 85.8338 148.184 86.5838 147.267 86.5838H100.201C99.6008 86.5838 99.0508 86.2671 98.7508 85.7504L94.8174 78.9338L87.0841 105.834C86.8841 106.534 86.2674 107.017 85.5341 107.034C85.5341 107.05 85.5174 107.05 85.4841 107.05Z" fill="#2C3583"/>
<path d="M20.7674 57.7502C19.984 57.7502 19.2674 57.1835 19.134 56.3835C17.1007 45.1668 25.134 40.0002 25.4674 39.7835C26.2507 39.3002 27.2674 39.5335 27.7674 40.3168C28.2507 41.1002 28.0174 42.1168 27.2507 42.6168C26.984 42.7835 20.8007 46.8668 22.4174 55.7835C22.584 56.6835 21.984 57.5502 21.084 57.7168C20.9674 57.7335 20.8674 57.7502 20.7674 57.7502Z" fill="#2C3583"/>
<path d="M32.8681 36.3501C32.3347 36.3501 31.8014 36.0834 31.4847 35.6001C30.9681 34.8334 31.1847 33.8001 31.9514 33.3001C32.2014 33.1334 38.3181 29.1168 43.7181 31.2834C44.5681 31.6334 44.9847 32.6001 44.6514 33.4501C44.3181 34.3001 43.3347 34.7168 42.4847 34.3834C38.7181 32.8834 33.8514 36.0501 33.8014 36.0834C33.5014 36.2668 33.1847 36.3501 32.8681 36.3501Z" fill="#2C3583"/>
</g>
<defs>
<clipPath id="clip0">
<rect x="10" y="20" width="139.817" height="119.583" fill="white"/>
</clipPath>
</defs>
</svg>
